<svg id="Layer_1" data-name="Layer 1" xmlns="http://www.w3.org/2000/svg" viewBox="0 0 667.32 667.32"><defs><style>.cls-1{fill:#ffd30b;}</style></defs><title>Numbered-List</title><path class="cls-1" d="M597,152.54v25.2a28.45,28.45,0,0,1-28.37,28.38H234.15a28.46,28.46,0,0,1-28.38-28.38v-25.2a28.46,28.46,0,0,1,28.38-28.38H568.61A28.45,28.45,0,0,1,597,152.54ZM92.87,213.07h25.22V115.7H95.73l-18.2,7.8v16.12H92.87Zm475.74,80.75H234.15a28.46,28.46,0,0,0-28.38,28.38v25.2a28.46,28.46,0,0,0,28.38,28.38H568.61A28.45,28.45,0,0,0,597,347.4V322.2A28.45,28.45,0,0,0,568.61,293.82ZM70.33,382h66.82V359.33H103.61l16.64-17A58.91,58.91,0,0,0,131,327.94a35.19,35.19,0,0,0,3.51-16.06q0-13.9-6.82-20.6t-23.34-6.7a119.49,119.49,0,0,0-16.57,1q-7.35,1-15.93,2.86v20H99.58q5.07,0,7.41,1.89t2.34,5.91a12.82,12.82,0,0,1-2.21,7,50.25,50.25,0,0,1-6.76,8l-30,30.68Zm498.28,81.54H234.15a28.46,28.46,0,0,0-28.38,28.37v25.2a28.46,28.46,0,0,0,28.38,28.38H568.61A28.45,28.45,0,0,0,597,517.06v-25.2A28.45,28.45,0,0,0,568.61,463.49ZM114.52,551.62q13.26,0,20.67-6.31t7.41-18v-3.77a27.61,27.61,0,0,0-3.12-13.65,15.65,15.65,0,0,0-9.1-7.54,15.25,15.25,0,0,0,8.32-6.5q2.61-4.43,2.6-11.31V478q0-12.23-7-18.27t-19.89-6.3a140.26,140.26,0,0,0-17.55.84q-8.84,1-19.24,2.8v20.28h26.52c4.6,0,7.78.5,9.56,1.49s2.66,2.8,2.66,5.4v1.17a4.4,4.4,0,0,1-2.4,4.16c-1.61.87-4.18,1.38-7.74,1.56l-22,1.43v19.5l23.14,1q10,.39,10,6.76v2.47a4.27,4.27,0,0,1-2.66,4.29q-2.67,1.17-10.08,1.17H76.3v20.28A195,195,0,0,0,114.52,551.62Z"/></svg>